<?xml version="1.0" encoding="UTF-8" standalone="no"?><!DOCTYPE svg PUBLIC "-//W3C//DTD SVG 1.1//EN" "http://www.w3.org/Graphics/SVG/1.1/DTD/svg11.dtd"><svg width="100%" height="100%" viewBox="0 0 2867 2932" version="1.1" xmlns="http://www.w3.org/2000/svg" xmlns:xlink="http://www.w3.org/1999/xlink" xml:space="preserve" xmlns:serif="http://www.serif.com/" style="fill-rule:evenodd;clip-rule:evenodd;stroke-linejoin:round;stroke-miterlimit:2;"><g><path d="M1334.858,2748.667c7.299,-2.83 19.87,-4.242 27.913,-3.119c8.081,1.123 19.054,3.87 24.399,6.151c5.389,2.287 12.46,8.401 15.701,13.512c3.241,5.153 7.221,17.335 11.629,44.847l-18.544,-0.088c-15.03,-0.041 -18.505,-1.454 -18.505,-7.356c0.039,-3.989 -2.614,-11.469 -5.856,-16.627c-3.236,-5.111 -9.408,-9.348 -13.704,-9.348c-4.296,0 -10.428,4.237 -13.665,9.348c-4.412,6.984 -5.895,21.536 -5.933,57.154c-0.039,33.083 1.482,49.461 4.918,53.077c2.692,2.907 8.903,5.235 13.704,5.194c4.84,-0.041 10.54,-3.782 12.688,-8.396c2.148,-4.573 3.907,-12.054 3.907,-16.627c0,-7.149 2.619,-8.272 37.092,-8.189l-2.187,17.625c-1.21,9.684 -4.296,21.821 -6.837,26.932c-2.537,5.158 -8.587,11.557 -13.427,14.216c-4.806,2.659 -18.432,4.863 -30.26,4.821c-11.789,0 -26.742,-2.871 -33.185,-6.363c-6.444,-3.451 -14.758,-13.13 -18.544,-21.443c-4.335,-9.601 -6.76,-24.568 -6.643,-41.106c0.078,-14.257 1.764,-39.984 3.674,-57.149c2.187,-19.369 6.322,-35.08 10.929,-41.562c4.101,-5.696 13.393,-12.68 20.735,-15.504Zm156.757,-5.116c8.081,-0.083 20.808,2.659 28.306,6.068c7.532,3.451 16.712,11.391 20.42,17.667c4.84,8.189 7.727,26.187 10.108,63.382c2.853,43.807 2.386,54.453 -2.848,67.547c-3.397,8.603 -11.911,19.322 -18.899,23.895c-7.965,5.235 -19.559,8.313 -31.232,8.313c-10.19,0 -24.676,-2.783 -32.209,-6.234c-8.004,-3.657 -16.323,-11.764 -20.152,-19.741c-4.801,-9.891 -6.949,-27.811 -8.081,-67.547c-1.443,-50.744 -1.011,-54.862 7.265,-67.748c4.884,-7.563 14.214,-16.373 20.774,-19.575c6.56,-3.197 18.505,-5.903 26.547,-6.027Zm213.443,-23.564c9.218,0.538 9.763,2.7 22.49,85.746c10.151,66.584 11.949,85.912 8.12,88.281c-2.697,1.661 -10.19,3.114 -16.634,3.197c-9.597,0.124 -12.139,-1.868 -14.287,-11.345c-1.404,-6.363 -4.918,-29.803 -7.804,-52.079c-2.853,-22.322 -6.526,-40.563 -8.164,-40.522c-1.599,0.016 -3.12,12.643 -3.358,28.049c-0.272,15.463 -1.56,40.155 -2.925,54.955c-2.42,26.264 -2.736,26.89 -27.524,31.293l-18.432,-47.801c-10.113,-26.264 -19.987,-49.668 -21.902,-51.955c-2.104,-2.488 -2.653,-0.036 -1.327,6.234c1.171,5.737 4.923,27.232 8.319,47.801c3.392,20.574 6.949,40.227 7.887,43.641c1.288,4.573 -2.697,7.113 -14.88,9.395c-9.136,1.749 -16.945,2.659 -17.334,2.08c-0.403,-0.641 -6.959,-37.113 -14.642,-81.09c-7.654,-43.972 -13.937,-82.797 -13.937,-86.248c0,-4.361 6.677,-7.315 22.446,-9.933c12.367,-2.074 23.33,-3.238 24.399,-2.576c1.093,0.626 10.545,22.405 20.969,48.38c10.462,26.011 20.614,49.12 22.533,51.411c2.104,2.535 3.63,-9.933 3.824,-31.169c0.194,-19.41 1.477,-45.597 2.848,-58.188c2.459,-22.152 2.969,-22.902 16.206,-25.478c7.532,-1.495 17.917,-2.416 23.107,-2.08Zm-564.166,-1.536c2.342,0 22.684,3.735 45.213,8.308c22.451,4.589 40.81,8.319 40.995,8.396c0,0.083 -0.549,5.199 -1.293,11.433c-0.7,6.275 -2.026,13.714 -2.925,16.539c-1.288,4.118 -7.226,3.911 -27.995,-0.993c-14.467,-3.404 -26.751,-5.773 -27.286,-5.199c-0.549,0.548 -1.409,9.405 -2.969,38.158l19.521,4.485c19.093,4.408 19.559,4.868 22.213,37.325l-16.94,-3.285c-9.33,-1.826 -20.502,-4.278 -24.793,-5.484c-6.716,-1.868 -8.319,0.797 -11.716,18.996c-3.591,19.493 -3.275,21.319 3.907,23.233c4.296,1.164 15.735,3.533 25.376,5.24c13.155,2.328 17.922,5.194 18.894,11.303c0.705,4.532 0.316,11.929 -0.855,16.503c-2.187,8.308 -2.308,8.313 -46.228,0.331c-24.205,-4.402 -44.586,-8.148 -45.247,-8.313c-0.646,-0.269 5.321,-40.129 13.315,-88.653c8.47,-51.277 16.352,-88.302 18.816,-88.322Zm352.594,58.188c-2.731,0 -8.159,2.328 -12.1,5.194c-6.361,4.609 -6.988,10.352 -5.778,53.367c1.016,35.24 2.964,50.082 7.26,55.24c3.241,3.906 9.802,7.025 14.646,6.901c5.112,-0.083 10.579,-4.076 13.077,-9.519c2.731,-6.068 3.436,-25.106 1.949,-54.034c-1.638,-31.546 -4.063,-46.512 -8.198,-50.915c-3.241,-3.451 -8.081,-6.234 -10.856,-6.234Zm316.328,-86.869c2.697,-0.207 11.05,2.411 18.549,5.82c8.076,3.699 16.318,11.805 20.143,19.741c3.591,7.439 7.804,20.072 9.369,28.054c1.599,8.024 1.327,20.662 -0.583,28.06c-2.265,8.562 -8.203,16.42 -16.245,21.407c-6.949,4.32 -18.388,8.97 -25.376,10.383c-6.944,1.371 -12.688,3.911 -12.688,5.613c0,1.749 3.513,16.213 7.804,32.214c4.335,15.996 7.848,29.586 7.853,30.134c-0.049,0.585 -6.993,3.409 -15.541,6.234c-8.509,2.866 -16.391,4.278 -17.528,3.119c-1.137,-1.148 -12.192,-40.025 -47.011,-170.535l19.525,-5.949c10.735,-3.28 25.687,-7.765 33.185,-9.969c7.532,-2.162 15.886,-4.159 18.544,-4.325Zm-802.645,1.661c2.614,-7.605 5.778,-10.264 10.346,-8.686c3.63,1.247 18,5.903 31.937,10.434c13.976,4.49 30.216,12.007 36.116,16.746c5.933,4.697 12.727,15.546 15.147,24.107c3.79,13.637 2.736,21.66 -8.548,63.387c-10.229,37.904 -15.502,50.625 -25.459,61.308c-9.874,10.636 -15.769,13.507 -27.602,13.461c-8.237,-0.041 -28.656,-4.237 -45.363,-9.348c-16.668,-5.111 -30.255,-11.174 -30.182,-13.466c0.078,-2.287 8.903,-35.002 19.598,-72.735c10.696,-37.687 19.637,-69.807 19.836,-71.406c0.233,-1.578 2.104,-7.775 4.174,-13.802Zm37.369,35.162c-3.829,0.083 -7.814,2.499 -8.869,5.365c-1.055,2.835 -7.882,25.773 -15.186,50.915c-7.338,25.137 -12.134,47.164 -10.696,48.918c1.448,1.785 8.319,3.197 15.307,3.114c9.913,-0.083 13.854,-2.612 17.995,-11.505c2.887,-6.316 8.708,-27.061 12.882,-46.093c6.91,-31.505 7.032,-35.416 1.526,-42.772c-3.319,-4.402 -9.175,-7.982 -12.96,-7.941Zm888.259,-82.916c13.743,0 21.124,2.411 28.423,9.307c5.428,5.158 16.634,26.192 24.91,46.761c8.319,20.574 17.256,44.888 19.953,54.034c2.653,9.141 3.747,21.774 2.381,28.054c-1.327,6.316 -7.265,17.17 -13.198,24.19c-6.283,7.48 -18.777,15.375 -30.255,19.162c-11.245,3.699 -24.876,5.365 -32.213,3.906c-6.949,-1.412 -16.668,-7.693 -21.591,-14.009c-4.918,-6.275 -16.318,-31.505 -25.376,-56.109c-9.058,-24.562 -16.478,-51.204 -16.478,-59.228c0,-7.977 2.42,-19.658 5.311,-25.975c2.925,-6.275 13.043,-15.633 22.451,-20.745c10.696,-5.815 24.166,-9.348 35.683,-9.348Zm-1070.752,-28.846c5.389,-0.041 17.261,3.616 26.358,8.148c9.136,4.485 19.559,13.342 23.151,19.617c4.529,7.894 6.011,17.454 4.879,30.755c-0.894,10.636 -2.537,20.408 -3.63,21.696c-1.055,1.288 -8.475,-0.869 -16.44,-4.78c-12.878,-6.316 -14.403,-8.686 -13.66,-21.071c0.583,-9.477 -1.366,-15.504 -6.011,-18.706c-5,-3.492 -8.635,-3.528 -13.67,-0.16c-3.747,2.493 -7.299,9.058 -7.926,14.542c-0.661,5.944 4.534,19.203 12.81,32.793c7.654,12.592 15.852,29.43 18.272,37.413c3.669,12.302 3.081,17.454 -3.713,33.248c-5.661,13.093 -12.294,20.91 -22.057,25.98c-7.654,4.03 -17.023,7.268 -20.808,7.268c-3.752,-0.041 -16.051,-4.733 -27.33,-10.388c-13.393,-6.772 -22.495,-14.671 -26.358,-22.86c-3.202,-6.855 -5.856,-18.08 -5.856,-24.94c0,-6.86 2.226,-17.041 9.763,-32.793l14.637,8.106c13.903,7.687 14.525,8.898 12.183,23.652c-1.949,12.509 -0.972,16.668 4.884,20.864c4.058,2.907 9.408,5.235 11.945,5.194c2.537,-0.041 7.382,-2.871 10.739,-6.322c3.397,-3.409 6.128,-10.429 6.089,-15.582c-0.039,-5.116 -7.416,-21.495 -16.396,-36.373c-11.478,-18.991 -16.24,-31.293 -16.124,-41.562c0.117,-7.977 3.12,-20.615 6.633,-28.054c3.513,-7.398 11.245,-16.208 17.139,-19.575c5.933,-3.326 15.147,-6.063 20.497,-6.11Zm1061.228,61.851c-3.669,0.124 -9.252,4.402 -12.455,9.555c-3.159,5.111 -4.84,12.136 -3.674,15.587c1.171,3.409 8.519,23.735 16.367,45.136c7.804,21.407 17.29,40.563 21.042,42.607c3.747,2.033 10.346,2.737 14.637,1.614c4.296,-1.164 8.747,-6.311 9.918,-11.428c1.293,-5.732 -4.101,-25.478 -13.859,-50.91c-8.825,-22.86 -18.116,-44.019 -20.692,-46.973c-2.537,-2.949 -7.654,-5.277 -11.284,-5.189Zm135.439,-91.069c8.587,-0.124 19.598,2.618 24.399,6.068c4.845,3.451 11.439,11.847 14.642,18.701c3.241,6.86 5.899,18.577 5.938,25.98c0.039,7.439 -1.72,15.38 -3.907,17.667c-2.678,2.794 -0.087,5.225 7.77,7.274c9.291,2.493 15.341,9.767 29.395,35.328c9.675,17.661 17.611,32.069 17.689,32.214c-0.156,0.078 -7.202,3.787 -15.813,8.308c-12.882,6.772 -16.712,7.32 -20.614,2.995c-2.653,-2.954 -9.214,-15.132 -14.603,-27.02c-7.027,-15.623 -12.222,-21.986 -18.544,-22.731c-4.806,-0.538 -12.299,0.833 -16.59,3.114c-7.537,4.035 -7.26,5.24 22.995,68.576l-15.463,8.319c-10.108,5.442 -16.668,6.896 -18.894,4.154c-1.919,-2.292 -19.409,-36.875 -38.929,-76.895c-19.477,-39.973 -35.756,-74.758 -36.15,-77.303c-0.389,-2.54 13.193,-11.35 30.177,-19.575c18.306,-8.857 37.287,-15.049 46.5,-15.173Zm-256.668,141.482c-4.84,0.166 -10.973,1.076 -13.665,2.074c-3.786,1.33 -3.475,6.57 1.366,23.569c3.436,11.96 6.521,22.312 6.832,22.943c0.321,0.662 5.472,-1.205 11.444,-4.159c8.081,-3.947 10.812,-8.184 10.735,-16.704c-0.078,-6.316 -1.871,-15.173 -4.019,-19.741c-2.265,-4.821 -7.576,-8.194 -12.693,-7.982Zm-1047.407,-175.025c0.044,-0.041 8.402,4.615 18.592,10.388c10.224,5.82 18.578,11.935 18.622,13.637c0.039,1.749 -1.604,8.727 -3.63,15.587c-2.031,6.86 -11.911,44.262 -21.945,83.123c-10.035,38.861 -19.676,72.528 -21.474,74.815c-2.07,2.659 -8.47,0.414 -17.645,-6.234c-11.906,-8.603 -13.981,-12.136 -12.066,-20.781c1.288,-5.691 3.319,-14.133 4.49,-18.706c1.715,-6.565 -1.293,-10.264 -31.276,-27.009l-20.614,27.009l-37.948,-19.203l62.43,-66.248c34.357,-36.409 62.464,-66.295 62.464,-66.378Zm1425.033,-53.532c2.104,-0.207 6.206,5.737 9.097,13.135c4.801,12.302 4.602,14.092 -2.386,19.741c-4.213,3.451 -10.929,8.272 -14.953,10.724c-6.711,4.071 -4.408,9.312 28.817,65.462c19.861,33.528 36.179,62.358 36.271,64.091c0.039,1.743 -6.094,6.86 -13.631,11.433c-12.178,7.351 -14.365,7.599 -19.049,2.074c-2.891,-3.414 -19.608,-31.013 -68.99,-116.377l-31.781,18.701l-7.454,-10.393c-4.063,-5.691 -7.459,-12.255 -7.498,-14.542c-0.039,-2.287 19.676,-17.548 43.842,-33.921c24.122,-16.373 45.635,-29.917 47.715,-30.129Zm-130.798,125.316c-5.307,-0.585 -12.256,0.621 -15.497,2.7c-4.996,3.244 -4.213,6.772 5.273,23.936l11.167,20.16c20.104,-22.441 20.337,-23.605 14.676,-34.371c-3.591,-6.818 -9.84,-11.805 -15.618,-12.426Zm-1463.053,-191.988c1.643,-0.083 10.895,5.903 20.58,13.306c9.719,7.439 17.645,15.38 17.567,17.667c-0.044,2.292 -8.864,25.23 -19.598,50.91c-10.735,25.721 -19.049,47.707 -18.549,48.84c0.549,1.117 18.116,-13.844 39.041,-33.253c20.964,-19.405 39.391,-35.318 40.999,-35.369c1.643,-0.041 9.097,4.78 16.59,10.683c7.532,5.897 16.007,12.007 18.86,13.549c3.669,2.033 -8.708,22.571 -42.948,71.323c-26.46,37.687 -48.984,70.097 -50.092,72.109c-1.055,1.997 -8.509,-0.786 -16.513,-6.146c-8.042,-5.365 -14.603,-10.683 -14.603,-11.847c0.005,-1.128 13.825,-20.791 30.765,-43.646c16.892,-22.84 30.041,-41.991 29.244,-42.596c-0.88,-0.522 -19.574,14.925 -41.583,34.366c-21.97,19.488 -40.859,35.318 -41.971,35.25c-1.055,-0.088 -5.904,-3.414 -19.521,-14.547l19.443,-49.875c10.657,-27.434 19.01,-50.294 18.544,-50.832c-0.53,-0.466 -13.208,17.682 -28.229,40.398c-15.03,22.736 -29.084,41.355 -31.232,41.355c-2.153,-0.041 -9.18,-4.449 -27.33,-19.741l18.971,-28.427c10.424,-15.628 32.369,-47.552 48.804,-70.868c16.391,-23.311 31.149,-42.467 32.758,-42.607Zm161.058,176.691c-0.321,-0.74 -7.192,7.361 -15.23,17.91c-8.081,10.6 -14.948,20.864 -15.303,22.902c-0.355,1.997 3.275,6.192 8.115,9.353c8.592,5.525 8.946,5.028 15.895,-21.614c3.902,-15.002 6.832,-27.847 6.521,-28.551Zm1499.242,-164.136c2.153,-0.036 13.47,7.858 25.182,17.501c11.672,9.643 40.684,34.04 64.422,54.236c23.734,20.155 43.682,37.899 44.314,39.487c0.661,1.536 -5.039,7.941 -26.552,25.644l-12.683,-10.264c-6.949,-5.654 -13.976,-10.31 -15.618,-10.393c-1.604,-0.036 -9.068,5.494 -30.26,24.816l15.069,31.169l-13.393,11.433c-7.338,6.316 -14.248,11.428 -15.341,11.428c-1.059,-0.01 -5.584,-8.862 -10.035,-19.741c-4.49,-10.853 -19.836,-48.426 -60.243,-147.302l15.618,-14.004c8.587,-7.687 17.373,-13.963 19.521,-14.009Zm-1710.585,-64.008c17.484,17.366 32.282,33.698 32.952,36.244c0.622,2.535 -3.358,8.851 -18.743,23.357l-39.391,-39.482l-25.026,27.558l39.041,36.492l-20.847,23.233l-16.906,-15.711c-9.286,-8.603 -18.658,-15.499 -20.809,-15.256c-2.149,0.212 -9.18,7.072 -27.33,30.051l42.949,39.948l-9.763,10.719c-5.348,5.903 -11.088,10.683 -12.69,10.6c-1.609,-0.052 -17.858,-14.149 -69.3,-62.43l57.042,-68.499l57.078,-68.452l31.742,31.629Zm1734.052,143.06c11.556,27.346 11.833,27.64 20.381,20.952c4.762,-3.74 8.903,-7.817 9.214,-9.105c0.311,-1.288 -8.864,-10.724 -20.381,-20.946l-20.93,-18.618l11.716,27.718Zm126.735,-228.967c1.181,0.01 17.066,16.337 35.328,36.363c18.272,20.031 44.629,49.047 83.909,92.559l-25.692,26.978l-37.253,-41.562c-23.734,-26.513 -34.391,-36.285 -29.434,-27.02c4.257,7.982 16.79,31.381 47.866,89.362l-17.961,19.286l-93.7,-63.76l74.18,79.802l-25.42,27.02l-119.038,-126.728l36.504,-39.529l36.388,24.48c20.031,13.466 40.8,27.516 55.792,37.868l-8.353,-14.547c-4.568,-8.024 -17.222,-30.47 -47.944,-85.208l16.357,-17.667c8.975,-9.72 17.29,-17.692 18.471,-17.698Zm-1962.729,-20.579c1.601,-0.124 7.5,5.903 23.273,26.849l-98.86,103.909l37.523,39.322l-9.762,10.553c-5.349,5.82 -11.52,10.476 -13.667,10.393c-2.159,-0.14 -16.654,-15.152 -60.516,-66.502l59.543,-62.177c32.741,-34.19 60.84,-62.239 62.466,-62.348Zm2040.734,-79.011c1.215,0.083 6.998,4.289 23.428,18.577l-36.859,49.047l27.335,23.983l7.299,-9.477c4.019,-5.24 10.657,-14.216 14.758,-19.912c6.988,-9.808 8.042,-10.052 17.606,-4.154c5.584,3.409 10.817,8.562 11.595,11.428c0.821,2.825 -4.723,13.135 -12.299,22.86c-7.571,9.684 -13.699,19.037 -13.66,20.786c0.044,1.707 7.114,8.732 31.31,28.054l37.092,-46.719l25.376,21.779l-62.469,78.969l-51.729,-46.756c-28.462,-25.726 -58.333,-52.374 -80.939,-71.701l29.983,-38.442c16.508,-21.148 30.994,-38.396 32.175,-38.323Zm-2126.629,-24.733c1.601,-0.207 11.95,11.35 22.96,25.644c11.009,14.257 22.45,31.091 25.379,37.413c2.967,6.275 4.409,16.544 3.199,22.86c-1.171,6.275 -4.214,14.294 -6.829,17.827c-2.577,3.533 -9.062,9.643 -14.45,13.549c-5.349,3.906 -15.459,7.108 -22.446,7.067c-10.579,0 -12.691,1.542 -12.652,9.353c-0,5.111 -3.006,14.009 -6.715,19.741c-3.709,5.696 -10.305,13.59 -14.678,17.496c-4.334,3.947 -14.058,8.319 -21.592,9.772c-8.277,1.536 -18.079,0.372 -24.872,-2.995c-6.171,-3.083 -21.442,-18.67 -56.691,-63.755l63.211,-56.823c34.764,-31.236 64.541,-56.947 66.177,-57.149Zm-43.099,102.75c-6.87,-6.694 -8.043,-6.363 -22.565,6.813l-15.348,13.885c12.102,13.756 19.134,17.786 23.429,17.786c4.295,0 10.852,-3.368 14.522,-7.439c3.709,-4.076 6.873,-11.143 6.99,-15.716c0.116,-4.568 -3.047,-11.464 -7.028,-15.328Zm2236.22,-182.511c4.957,-6.937 10.535,-10.884 13.155,-9.27c2.498,1.583 32.524,23.569 66.764,48.882c34.191,25.302 64.053,47.288 66.371,48.835c2.658,1.785 0.272,8.893 -6.599,19.741c-7.382,11.64 -12.882,16.342 -17.567,15.054c-3.756,-1.045 -24.832,-6.658 -46.85,-12.478c-22.018,-5.815 -42.209,-10.595 -44.902,-10.678c-2.678,-0.031 13.145,13.073 75.162,58.312l-6.837,12.923c-3.747,7.108 -8.592,13.761 -10.739,14.759c-2.167,0.978 -34.211,-19.793 -71.25,-46.176c-37.049,-26.394 -68.125,-49.42 -69.102,-51.127c-1.016,-1.749 2.498,-10.14 7.804,-18.701c6.483,-10.595 12.416,-15.54 18.349,-15.416c4.845,0.124 27.684,5.277 50.718,11.428c23.073,6.192 41.894,10.305 41.855,9.182c-0.102,-1.179 -16.765,-13.807 -37.054,-28.054c-20.342,-14.299 -37.17,-28.054 -37.403,-30.548c-0.233,-2.493 3.402,-10.015 8.125,-16.668Zm-2185.504,136.578c-6.908,-6.901 -7.811,-6.606 -19.718,6.239c-11.944,12.881 -12.178,13.797 -5.543,20.61c3.786,3.947 9.563,7.315 12.765,7.444c3.24,0.124 8.901,-3.119 12.571,-7.191c3.709,-4.071 6.873,-10.186 6.99,-13.637c0.117,-3.451 -3.045,-9.477 -7.066,-13.466Zm-93.507,-161.016c5.895,-0.041 15.574,2.493 21.469,5.613c5.895,3.114 15.578,11.552 21.474,18.701c5.895,7.191 12.497,20.538 14.645,29.679c3.162,13.383 2.577,19.617 -2.928,32.214c-5.154,11.759 -16.832,22.897 -47.831,45.509c-22.525,16.456 -46.259,31.169 -52.704,32.71c-6.442,1.495 -16.987,1.412 -23.429,-0.207c-6.442,-1.666 -16.983,-8.934 -23.424,-16.166c-6.441,-7.274 -14.015,-21.614 -16.866,-31.836c-4.451,-15.965 -4.336,-20.952 0.778,-35.209c4.607,-12.804 12.535,-21.572 34.477,-38.07c15.656,-11.764 36.388,-26.233 46.032,-32.131c9.682,-5.944 22.412,-10.807 28.307,-10.807Zm6.402,41.401c-3.48,0.041 -21.943,10.972 -40.992,24.314c-19.092,13.3 -37.33,27.428 -40.57,31.376c-4.84,5.903 -4.993,8.898 -0.972,17.335c3.006,6.234 8.276,10.176 13.662,10.181c4.841,0 25.926,-12.136 46.853,-27.015c29.243,-20.739 38.067,-29.177 38.145,-36.368c0.039,-5.153 -2.185,-11.723 -4.878,-14.63c-2.733,-2.871 -7.812,-5.235 -11.247,-5.194Zm-104.987,-149.009c44.739,-26.766 49.233,-28.634 53.996,-22.152c2.889,3.906 11.206,19.7 18.546,35.162c7.652,16.042 13.353,34.288 13.354,42.601c0,9.974 -3.36,18.494 -10.739,27.263c-5.896,6.984 -16.867,14.676 -24.402,17.087c-7.496,2.411 -19.365,3.202 -26.352,1.831c-11.243,-2.287 -12.883,-1.371 -14.64,7.853c-1.055,5.696 -5.898,13.218 -10.739,16.709c-4.843,3.451 -17.767,12.343 -48.723,33.165l-16.671,-35.328l14.64,-9.767c8.041,-5.359 19.478,-12.845 25.375,-16.627c5.896,-3.782 11.636,-9.684 12.69,-13.093c1.093,-3.451 -0.661,-10.931 -9.757,-27.015l-28.307,16.544c-15.571,9.053 -29.154,16.611 -30.258,16.746c-1.057,0.119 -5.469,-7.32 -9.762,-16.539c-4.294,-9.188 -6.909,-17.413 -5.856,-18.329c1.095,-0.874 12.497,-7.32 25.38,-14.257c12.885,-6.942 45.406,-25.773 72.227,-41.856Zm2450.095,-0.502c1.016,0 7.071,2.794 13.509,6.239c6.444,3.409 11.677,8.562 11.6,11.428c-0.078,2.83 -3.596,11.267 -15.507,32.214l20.502,13.756c11.284,7.563 38.064,24.609 98.579,61.934l-7.804,16.166c-4.296,8.851 -8.669,16.208 -9.763,16.29c-1.084,0.067 -28.321,-15.804 -60.515,-35.287c-32.199,-19.488 -59.407,-35.483 -60.515,-35.576c-1.059,-0.078 -5.472,7.439 -9.763,16.746c-4.291,9.265 -8.237,16.787 -8.786,16.751c-0.554,-0.088 -6.249,-3.409 -12.727,-7.393c-6.478,-4.035 -11.677,-9.146 -11.595,-11.433c0.078,-2.287 3.358,-9.772 7.299,-16.627c3.907,-6.86 15.346,-28.846 25.42,-48.835c10.059,-20.01 19.069,-36.331 20.065,-36.373Zm-2409.097,26.311c-2.15,-0.745 -11.367,3.332 -20.501,9.022l-16.591,10.346c12.533,19.829 15.659,21.241 25.38,19.037c6.441,-1.454 14.367,-5.406 17.568,-8.769c4.489,-4.697 4.957,-8.691 1.951,-17.206c-2.147,-6.11 -5.659,-11.681 -7.806,-12.431Zm2454.82,-128.43c6.244,-4.656 14.996,-6.027 30.26,-4.821c15.614,1.247 32.952,7.563 63.441,23.15c32.68,16.668 43.259,24.195 47.827,33.921c3.241,6.855 5.822,18.536 5.778,25.975c-0.039,7.398 -3.319,20.993 -7.299,30.134c-3.946,9.146 -11.988,21.277 -17.805,27.015c-8.626,8.438 -14.365,10.31 -30.765,9.979c-15.769,-0.295 -29.322,-5.075 -62.158,-21.826c-27.597,-14.092 -44.314,-25.266 -48.804,-32.669c-4.135,-6.813 -6.716,-18.701 -6.483,-30.134c0.16,-10.512 4.063,-26.683 8.786,-36.533c4.646,-9.726 12.382,-20.615 17.222,-24.19Zm26.159,35.788c-5.467,-0.124 -12.416,2.038 -15.424,4.78c-3.003,2.742 -5.151,7.894 -4.801,11.428c0.35,3.533 3.79,9.643 7.615,13.549c3.824,3.906 22.762,14.635 42.088,23.817c19.321,9.229 37.748,16.875 40.995,17.004c3.241,0.124 8.12,-2.168 10.851,-5.163c2.775,-2.949 4.529,-10.015 3.907,-15.747c-0.899,-8.603 -7.459,-13.719 -38.186,-29.927c-20.376,-10.719 -41.578,-19.617 -47.045,-19.741Zm-2522.678,-82.006c2.851,0.424 10.696,13.885 17.449,29.886c7.925,18.743 12.302,35.907 12.419,48.375c0.078,13.595 -2.188,22.074 -7.693,28.639c-4.295,5.158 -14.84,12.804 -23.429,17.004c-8.589,4.195 -22.642,7.687 -31.231,7.729c-8.589,0.083 -19.56,-2.706 -24.402,-6.156c-4.841,-3.451 -12.497,-14.211 -17.065,-23.895c-4.565,-9.72 -8.507,-18.153 -8.784,-18.701c-0.289,-0.574 -13.261,4.578 -57.118,23.895l-5.937,-15.587c-3.279,-8.603 -5.503,-17.206 -4.878,-19.162c0.601,-1.961 33.586,-19.12 73.281,-38.152c39.738,-19.032 74.564,-34.283 77.386,-33.874Zm-7.768,54.319c-4.061,-3.528 -10.349,-2.24 -25.769,5.199c-19.52,9.395 -20.186,10.227 -15.072,19.162c2.928,5.153 8.668,9.974 12.69,10.683c4.021,0.745 12.298,-1.123 18.389,-4.159c6.442,-3.202 11.908,-9.808 13.079,-15.877c1.21,-6.151 -0.155,-12.302 -3.317,-15.008Z" style="fill:#fff;fill-rule:nonzero;"/><path d="M2674.195,715.394c9.774,-0.107 23.253,1.943 29.955,4.567c6.702,2.628 18.499,10.724 26.213,17.992c7.714,7.267 19.282,23.347 25.723,35.723c6.404,12.336 12.584,30.578 13.75,40.474c1.384,12.085 0.033,23.275 -4.083,34.174c-3.374,8.888 -11.685,21.301 -18.429,27.592c-6.74,6.264 -27.448,19.792 -45.984,30.077c-18.536,10.254 -50.962,27.377 -72.085,38.025c-31.563,15.977 -41.678,19.429 -57.105,19.429c-10.86,0 -24.605,-2.843 -32.766,-6.797c-7.714,-3.708 -20.857,-13.854 -29.172,-22.487c-8.31,-8.633 -18.802,-22.984 -23.295,-31.873c-4.53,-8.92 -9.699,-23.495 -11.531,-32.379c-1.836,-8.924 -2.284,-22.666 -0.974,-30.578c1.347,-7.917 6.59,-20.365 11.685,-27.668c5.127,-7.267 16.891,-18.095 26.138,-23.996c9.289,-5.933 38.76,-21.91 65.537,-35.544c26.772,-13.599 55.418,-27.408 63.658,-30.65c8.236,-3.237 22.992,-5.973 32.766,-6.081Zm-2491.182,3.743c5.168,-0.215 17.791,1.979 28.088,4.894c10.297,2.911 22.093,7.554 26.213,10.321c7.339,4.966 7.226,5.543 -6.927,29.822c-7.932,13.626 -14.669,25.134 -14.98,25.617c-0.302,0.466 -8.58,-1.545 -18.352,-4.496c-12.58,-3.775 -19.958,-4.281 -25.275,-1.728c-4.119,1.984 -9.996,9.247 -13.104,16.192c-4.606,10.321 -4.757,14.212 -0.938,21.802c2.584,5.073 10.598,12.95 17.788,17.445c7.228,4.536 35.875,19.787 63.659,33.892c27.819,14.1 55.191,25.684 60.851,25.725c5.653,0.036 13.254,-1.334 16.85,-3.063c3.594,-1.724 8.875,-8.597 11.684,-15.287c4.381,-10.326 4.381,-13.742 0,-22.483c-2.809,-5.651 -11.007,-13.639 -18.234,-17.701c-7.186,-4.066 -13.926,-7.948 -14.98,-8.597c-1.006,-0.658 4.047,-13.357 11.234,-28.281c7.224,-14.884 13.964,-27.077 14.98,-27.019c1.051,0.04 11.01,5.364 22.166,11.803c11.159,6.475 25.501,17.987 31.83,25.613c9.549,11.441 11.76,17.665 12.809,35.979c0.973,16.581 -0.861,27.52 -7.264,43.707c-4.719,11.875 -15.391,29.499 -23.742,39.176c-8.35,9.717 -21.084,20.723 -28.311,24.538c-10.035,5.288 -18.351,6.587 -35.576,5.472c-19.433,-1.263 -31.271,-5.799 -87.551,-33.534c-41.191,-20.289 -71.896,-38.025 -83.654,-48.243c-14.791,-12.95 -19.662,-20.181 -24.156,-35.974c-4.418,-15.65 -4.754,-23.387 -1.534,-36.879c2.21,-9.426 8.275,-25.178 13.404,-35.074c5.168,-9.891 15.691,-24.104 23.405,-31.586c7.714,-7.446 19.961,-15.363 27.151,-17.593c7.226,-2.23 17.336,-4.245 22.467,-4.46Zm2495.862,60.691c-6.18,0.143 -24.717,7.196 -41.193,15.721c-16.476,8.526 -42.577,22.411 -58.042,30.829c-15.428,8.382 -31.904,18.78 -36.621,23.096c-5.132,4.715 -8.501,12.09 -8.543,18.605c-0.033,5.933 3.412,15.251 7.602,20.683c5.355,6.976 10.939,9.896 18.839,9.896c6.18,-0.004 20.074,-4.285 30.892,-9.466c10.823,-5.217 38.909,-20.217 62.428,-33.274c23.514,-13.097 45.984,-27.847 49.918,-32.808c5.015,-6.296 6.511,-12.233 4.978,-19.787c-1.198,-5.937 -5.989,-13.711 -10.594,-17.235c-4.647,-3.56 -13.484,-6.372 -19.664,-6.26Zm-2347.009,-238.628c24.19,10.863 61.677,27.628 83.322,37.232c21.607,9.569 59.954,26.441 85.193,37.523c25.234,11.042 47.548,20.069 49.617,20.074c2.06,0 3.78,1.227 3.855,2.7c0.037,1.473 -8.385,13.635 -18.718,26.983c-10.374,13.348 -19.699,24.278 -20.712,24.283c-1.057,-0.004 -11.99,-4.858 -24.342,-10.791c-12.354,-5.933 -24.558,-10.72 -27.146,-10.612c-2.586,0.076 -12.623,10.182 -22.357,22.483c-9.735,12.269 -17.712,23.526 -17.788,25.004c-0.07,1.482 7.91,12.385 35.462,45.763l-22.467,23.634c-12.356,13.021 -23.626,22.375 -25.089,20.759c-1.431,-1.594 -23.747,-30.444 -49.581,-64.076c-25.839,-33.637 -63.85,-83.425 -84.483,-110.623c-24.752,-32.701 -36.396,-50.975 -34.338,-53.961c1.723,-2.485 12.696,-16.12 24.342,-30.332l21.193,-25.863l44.037,19.823Zm2167.225,6.403c54.742,-23.128 72.006,-29.029 75.157,-25.684c2.247,2.414 12.808,15.327 23.44,28.671c10.664,13.339 19.389,25.098 19.399,26.078c0,1.007 -38.009,51.593 -84.441,112.427c-46.436,60.835 -85.909,110.627 -87.741,110.627c-1.808,-0.013 -12.678,-10.133 -45.015,-44.97l18.648,-22.487c15.73,-18.995 17.907,-23.419 14.048,-28.42c-2.55,-3.278 -11.349,-14.141 -19.585,-24.14c-8.236,-9.999 -17.073,-18.238 -19.66,-18.345c-2.587,-0.072 -14.794,4.711 -27.15,10.644c-12.351,5.937 -22.871,10.827 -23.402,10.867c-0.541,0.018 -8.963,-10.482 -18.727,-23.383c-9.774,-12.914 -17.371,-25.107 -16.849,-27.162c0.522,-2.051 27.895,-15.22 60.848,-29.213c32.957,-14.033 91.899,-38.997 131.031,-55.511Zm-2178.982,49c-2.271,-0.887 9.968,14.472 27.223,34.174c17.261,19.715 32.952,37.447 34.866,39.431c2.284,2.337 7.339,-0.828 14.378,-8.996c6.029,-6.905 10.938,-14.208 10.938,-16.187c-0.003,-1.979 -18.727,-13.312 -41.643,-25.183c-22.88,-11.87 -43.478,-22.344 -45.762,-23.239Zm2221.41,-10.505c-0.699,0.228 -21.808,11.159 -46.996,24.283c-25.159,13.129 -45.756,25.469 -45.761,27.453c0.042,1.979 5.206,9.282 11.531,16.187c11.349,12.448 11.536,12.52 17.94,5.396c3.556,-3.958 17.338,-19.321 30.631,-34.179c13.33,-14.821 26.362,-29.822 29.023,-33.279c2.657,-3.452 4.307,-6.112 3.631,-5.861Zm-2039.267,-270.108c1.535,-0.072 9.961,8.204 34.64,36.911l-70.252,61.879l17.86,19.787c9.806,10.895 18.38,20.602 19.062,21.582c0.674,1.007 15.167,-10.144 63.285,-51.3l15.917,16.656c8.762,9.173 15.954,17.882 15.991,19.358c0.028,1.483 -13.461,14.439 -59.99,54.86l21.529,23.49c11.825,12.869 22.344,23.481 23.407,23.531c1.007,0.036 17.45,-12.95 36.509,-28.886c19.058,-15.896 36.322,-28.922 38.387,-28.926c2.06,0.004 10.492,8.105 33.698,35.974l-27.15,24.681c-14.943,13.563 -42.13,37.416 -93.768,81.446l-17.595,-19.783c-9.667,-10.867 -51.57,-57.423 -93.061,-103.431c-41.528,-46.013 -75.08,-85.298 -74.556,-87.277c0.529,-2.018 26.214,-25.438 57.105,-52.058c30.882,-26.612 57.426,-48.442 58.98,-48.494Zm1767.136,-68.5c1.771,0.008 17.572,10.944 35.129,24.286c17.558,13.345 31.862,25.11 31.75,26.084c-0.14,1.057 -18.737,36.222 -41.337,78.247c-22.573,42.044 -40.662,77.293 -40.144,78.354c0.559,1.016 32.566,-22.431 71.148,-52.166c38.592,-29.737 71.866,-54.045 73.954,-54.07c2.06,0 17.646,10.754 34.644,23.884c16.989,13.121 31.284,24.448 31.829,25.183c0.527,0.72 -35.726,45.44 -80.512,99.366c-44.786,53.925 -85.08,102.89 -97.473,119.583l-14.458,-9.856c-7.975,-5.396 -19.51,-13.635 -25.691,-18.314c-10.37,-7.805 -10.781,-9.027 -5.616,-15.538c3.072,-3.887 26.665,-31.805 52.426,-62.097c25.728,-30.252 50.142,-59.285 54.187,-64.541c4.083,-5.251 4.903,-7.731 1.874,-5.501c-3.048,2.242 -35.847,27.06 -72.91,55.185c-37.068,28.129 -69.494,51.803 -72.085,52.636c-2.582,0.788 -12.361,-4.608 -21.72,-12.018c-9.359,-7.411 -16.924,-14.714 -16.849,-16.192c0.131,-1.513 18.695,-38.732 41.263,-82.741c22.582,-44.035 40.708,-80.442 40.256,-80.91c-0.489,-0.414 -23.878,27.086 -52.011,61.158c-28.161,34.105 -54.677,65.261 -58.909,69.215c-7.336,6.838 -8.161,6.873 -16.211,1.119c-4.684,-3.349 -15.097,-11.441 -37.786,-29.893l91.036,-105.233c50.053,-57.87 92.435,-105.206 94.215,-105.231Zm-2014.286,205.171c1.539,-0.067 7.866,4.755 14.042,10.688c8.724,8.382 11.234,13.993 11.234,25.183c-0,10.541 -2.736,17.409 -10.301,25.72c-5.655,6.26 -19.133,16.765 -29.954,23.387c-10.821,6.618 -19.808,13.272 -19.959,14.75c-0.187,1.473 -0.6,7.088 -0.937,12.484c-0.375,5.396 -4.534,13.487 -17.902,26.186l-11.047,-11.691c-8.761,-9.282 -11.01,-15.005 -11.01,-27.883c0,-12.587 2.288,-18.632 10.301,-27.193c5.654,-6.045 18.724,-15.363 29.021,-20.723c16.028,-8.347 18.726,-11.297 18.726,-20.508c0,-5.897 3.369,-15.108 7.488,-20.504c4.118,-5.36 8.763,-9.82 10.3,-9.896Zm2348.882,14.136c11.606,-0.036 17.488,2.342 26.213,10.581c6.176,5.826 15.465,20.866 20.629,33.386c7.602,18.453 11.126,22.948 18.723,23.956c5.132,0.649 13.148,4.715 17.828,8.996c4.717,4.281 8.497,9.39 8.497,11.369c-0.037,1.979 -5.127,6.439 -11.345,9.891c-6.218,3.452 -17.599,6.367 -25.313,6.443c-8.161,0.072 -17.972,-2.736 -23.402,-6.694c-5.169,-3.739 -12.473,-13.921 -16.29,-22.626c-3.822,-8.673 -9.289,-21.05 -12.174,-27.489c-3.705,-8.27 -7.714,-11.656 -13.666,-11.62c-5.094,0.072 -11.759,-4.209 -16.854,-10.791c-4.638,-5.964 -8.007,-11.396 -7.49,-12.05c0.522,-0.649 5.132,-3.923 10.301,-7.232c5.132,-3.314 16.103,-6.049 24.344,-6.121Zm-1922.921,-262.082c7.192,-0.144 19.846,2.701 28.086,6.262c8.236,3.561 21.347,13.633 29.098,22.411c7.784,8.738 14.146,16.723 14.225,17.701c0.037,1.007 -10.52,8.742 -47.066,32.63l-14.048,-12.698c-7.714,-7.014 -17.483,-12.732 -21.715,-12.734c-4.195,0.001 -11.801,4.062 -16.854,8.99c-5.057,4.964 -9.173,12.235 -9.173,16.192c0,3.958 4.046,11.657 9.023,17.089c8.986,9.819 9.368,9.892 68.343,11.763c44.222,1.367 62.158,3.31 70.547,7.591c6.18,3.166 16.071,11.259 21.985,17.95c5.915,6.69 13.064,16.619 15.912,22.052c2.848,5.432 6.18,15.975 7.415,23.385c1.198,7.411 0.485,19.966 -1.65,27.881c-2.284,8.598 -11.121,22.125 -21.906,33.601c-11.233,12.017 -26.437,23.171 -40.475,29.753c-16.29,7.626 -27.9,10.541 -42.13,10.469c-10.823,-0.036 -24.306,-2.266 -29.96,-4.997c-5.654,-2.7 -17.525,-12.811 -26.362,-22.487c-8.8,-9.641 -16.066,-19.177 -16.066,-21.156c-0.028,-1.981 11.051,-10.867 24.605,-19.787c24.036,-15.791 24.754,-16.007 29.993,-8.995c2.96,3.957 5.43,8.42 5.505,9.896c0.037,1.475 5.169,5.144 11.345,8.094c6.18,2.985 13.75,5.395 16.858,5.396c3.072,-0.002 10.673,-4.032 16.849,-8.995c7.001,-5.612 11.233,-12.374 11.233,-17.985c0,-4.928 -1.687,-12.231 -3.747,-16.188c-2.06,-3.957 -9.21,-9.859 -15.912,-13.096c-10.109,-4.928 -19.324,-5.505 -54.299,-3.599c-24.451,1.331 -48.417,0.792 -57.105,-1.294c-9.173,-2.195 -20.82,-9.212 -29.96,-17.99c-8.236,-7.915 -18.313,-21.26 -22.391,-29.678c-4.083,-8.418 -7.453,-22.991 -7.49,-32.38c-0.037,-9.641 2.96,-22.952 6.926,-30.579c3.859,-7.411 13.111,-18.743 20.596,-25.183c7.49,-6.439 18.723,-14.353 25.015,-17.627c6.288,-3.274 15.991,-7.195 21.533,-8.707c5.579,-1.475 15.991,-2.843 23.216,-2.952Zm1474.973,-23.023c13.628,7.121 26.171,13.918 27.863,15.108c1.72,1.151 -17.492,37.742 -42.656,81.272c-25.164,43.53 -56.056,96.809 -68.636,118.359c-12.547,21.585 -24.53,39.863 -26.59,40.619c-2.069,0.749 -15.171,-4.756 -29.093,-12.235c-13.969,-7.519 -25.318,-14.857 -25.281,-16.332c0.042,-1.488 17.497,-32.245 38.76,-68.356c21.272,-36.119 52.649,-89.433 69.727,-118.537l31.079,-52.885l24.829,12.987Zm-216.745,-92.528c11.307,-0.036 28.161,2.372 37.446,5.321c9.289,2.95 24.232,11.479 33.293,18.926c9.023,7.446 18.457,17.626 20.969,22.555c2.545,4.964 5.658,14.248 7.005,20.688c1.31,6.44 0.671,19.393 -1.464,28.782c-2.13,9.389 -5.355,19.535 -7.154,22.485c-2.806,4.638 -7.08,3.843 -30.067,-5.401c-25.239,-10.144 -26.665,-11.333 -24.004,-19.787c1.533,-4.929 2.699,-13.56 2.55,-19.136c-0.117,-5.612 -2.55,-12.379 -5.36,-15.077c-2.811,-2.697 -9.774,-5.789 -15.423,-6.905c-7.788,-1.546 -12.589,0.145 -19.664,6.944c-5.84,5.612 -9.359,13.061 -9.359,19.787c0,7.663 7.075,19.933 24.339,42.272c13.367,17.304 28.725,39.571 34.155,49.465c7.788,14.281 9.508,21.693 8.31,35.975c-0.825,9.894 -5.77,26.082 -10.972,35.975c-5.845,11.116 -15.614,22.126 -25.5,28.782c-14.453,9.749 -18.839,10.794 -44.716,10.722c-22.913,-0.036 -32.841,-1.908 -49.28,-9.319c-11.307,-5.072 -26.287,-13.961 -33.251,-19.717c-6.963,-5.756 -15.204,-15.325 -18.313,-21.26c-3.067,-5.936 -5.691,-18.095 -5.766,-26.98c-0.075,-8.886 2.657,-24.682 6.106,-35.079c3.482,-10.393 7.635,-18.484 9.284,-17.985c1.65,0.504 14.379,5.758 28.268,11.693c21.421,9.138 24.978,11.905 23.067,17.985c-1.198,3.957 -3.253,12.054 -4.526,17.99c-1.836,8.596 -0.298,12.806 7.635,20.683c7.154,7.087 13.67,9.895 23.071,9.896c8.837,0 15.581,-2.626 20.671,-8.094c4.158,-4.461 7.527,-12.557 7.49,-17.99c-0.037,-5.432 -2.433,-14.355 -5.318,-19.787c-2.885,-5.434 -15.577,-22.019 -28.198,-36.876c-14.789,-17.376 -24.94,-33.386 -28.534,-44.97c-4.307,-13.85 -4.721,-22.125 -1.874,-35.975c2.06,-9.893 9.247,-26.082 15.991,-35.975c6.963,-10.216 17.935,-20.719 25.388,-24.282c7.639,-3.669 21.682,-6.296 33.703,-6.332Zm-927.758,-32.236c11.834,-0.072 26.176,1.617 31.834,3.704c5.654,2.122 15.129,8.206 21.081,13.495c5.915,5.324 14.756,17.769 19.622,27.662c4.866,9.893 8.912,20.435 8.949,23.386c0.075,3.597 -8.963,8.142 -27.112,13.634c-25.01,7.554 -27.523,7.734 -30.967,2.265c-2.06,-3.31 -7.154,-11.042 -11.349,-17.229c-5.202,-7.698 -11.116,-11.623 -18.718,-12.38c-6.889,-0.719 -15.017,1.693 -21.421,6.297c-8.236,5.936 -10.301,10.291 -10.301,21.803c0,7.916 8.352,40.69 18.574,72.851c10.226,32.159 21.757,62.521 25.649,67.454c5.02,6.404 11.312,9.32 21.687,10.075c11.158,0.827 16.7,-0.902 23.519,-7.198c7.9,-7.339 8.758,-10.795 6.059,-53.965l24.344,-8.597c13.405,-4.711 26.432,-7.804 29.023,-6.835c2.582,0.972 6.362,7.842 8.422,15.253c2.097,7.411 3.971,22.377 4.232,33.277c0.303,13.635 -2.06,24.538 -7.527,35.079c-4.381,8.418 -12.58,18.311 -18.233,22.017c-5.654,3.705 -17.45,10.182 -26.213,14.391c-8.762,4.209 -25.616,8.956 -37.45,10.503c-11.834,1.546 -29.093,1.513 -38.378,-0.07c-9.252,-1.62 -22.661,-7.342 -29.774,-12.738c-7.453,-5.684 -17.227,-18.922 -23.221,-31.405c-5.654,-11.873 -18.159,-46.664 -27.784,-77.351c-9.62,-30.686 -18.308,-65.474 -19.245,-77.346c-1.426,-17.808 -0.191,-24.357 7.001,-37.343c4.829,-8.67 15.316,-20.792 23.295,-26.98c8.012,-6.188 23.174,-13.995 33.698,-17.413c10.562,-3.382 28.874,-6.225 40.703,-6.297Zm428.433,-53.567c1.235,-2.949 5.243,-4.103 10.077,-2.882c4.419,1.079 22.88,3.275 41.002,4.858c28.646,2.518 33.181,3.851 34.532,10.11c0.858,3.958 5.989,42.021 11.419,84.543c5.388,42.51 10.482,78.12 11.312,79.148c0.783,1.004 2.209,-0.65 3.141,-3.599c0.937,-2.954 13.032,-40.225 26.889,-82.746c13.852,-42.52 25.313,-77.701 25.504,-78.137c0.168,-0.43 19.688,1.011 86.31,7.268l-0.858,15.65c-0.489,8.602 -5.132,64.615 -10.296,124.476c-5.169,59.863 -10.231,114.079 -13.074,132.212l-27.145,-2.086c-14.943,-1.151 -28.837,-2.59 -30.897,-3.166c-2.433,-0.692 -1.496,-22.458 2.619,-61.77c3.519,-33.385 7.341,-72.816 8.464,-87.675c2.06,-26.909 1.986,-26.728 -57.893,143.904l-48.683,0l-1.794,-11.693c-0.974,-6.442 -6.441,-46.808 -12.174,-89.725c-5.691,-42.882 -11.195,-77.13 -12.244,-76.087c-1.011,1.089 -3.855,26.483 -6.288,56.444c-2.433,29.968 -5.807,68.066 -10.566,114.834l-28.082,-2.375c-15.428,-1.295 -29.093,-3.524 -30.37,-4.963c-1.268,-1.463 4.311,-60.925 12.361,-132.141c8.049,-71.214 15.572,-131.678 16.733,-134.402Zm-221.611,9.279c13.484,-4.569 27.453,-6.079 49.321,-5.396c27.07,0.899 32.388,2.234 46.809,11.946c8.949,6.044 19.995,17.376 24.563,25.183c6.106,10.541 10.748,31.335 17.786,79.9c5.243,36.119 9.513,74.579 9.513,85.444c0,10.901 -2.624,25.866 -5.807,33.277c-3.221,7.411 -10.37,18.131 -15.912,23.779c-5.579,5.684 -17.674,13.564 -26.963,17.522c-11.121,4.748 -28.31,7.804 -50.552,8.955c-31.75,1.619 -34.901,1.115 -54.299,-8.706c-17.11,-8.705 -22.321,-13.777 -30.818,-30.037c-8.762,-16.8 -11.349,-29.61 -18.163,-89.76c-4.381,-38.926 -6.926,-78.142 -5.654,-88.143c1.24,-10.109 6.329,-23.889 11.573,-31.48c5.169,-7.41 13.969,-16.333 19.585,-19.787c5.616,-3.454 18.648,-9.173 29.019,-12.699Zm35.465,47.777c-7.154,0.001 -14.756,3.276 -20.41,8.816c-6.628,6.511 -9.061,12.915 -9.135,24.282c-0.075,8.526 3.109,40.581 7.08,71.233c3.966,30.684 8.609,58.816 10.259,62.561c1.683,3.74 5.989,8.163 9.583,9.891c3.598,1.691 12.025,3.133 18.727,3.205c7.826,0.036 15.162,-2.843 20.517,-8.094c6.068,-5.972 8.394,-12.593 8.469,-24.391c0.037,-8.887 -3.295,-40.478 -7.453,-70.157c-4.153,-29.669 -7.527,-55.167 -7.527,-56.658c0.037,-1.476 -4.199,-6.729 -9.326,-11.693c-5.877,-5.647 -13.596,-8.995 -20.783,-8.995Z" style="fill:#fff;fill-rule:nonzero;"/><path d="M73.341,1334.328c9.613,0 23.286,2.939 30.332,6.528c7.047,3.642 17.36,11.529 22.866,17.5c5.553,6.023 12.179,18.342 14.746,27.299c2.94,10.362 3.08,23.146 0.327,35c-2.567,11.291 -10.826,25.109 -20.86,35c-13.953,13.765 -20.346,16.565 -40.739,17.779c-17.033,1.028 -29.026,-1.167 -40.505,-7.324c-10.08,-5.46 -20.346,-16.71 -26.879,-29.448c-5.787,-11.384 -10.546,-25.945 -10.546,-32.34c0,-6.441 5.6,-20.718 12.46,-31.73c6.813,-11.059 18.899,-24.174 26.833,-29.215c7.98,-4.989 22.353,-9.096 31.966,-9.049Zm2722.142,0.186c9.613,-0.093 23.285,2.66 30.33,6.203c7.045,3.502 18.621,12.929 25.666,21.002c10.501,11.994 12.836,19.039 12.836,39.107c-0.035,16.333 -3.142,29.552 -9.334,39.664c-5.134,8.352 -16.147,19.365 -24.499,24.499c-8.451,5.181 -23.43,9.334 -33.833,9.334c-10.269,0 -26.038,-3.828 -35,-8.497c-10.124,-5.268 -20.439,-16.379 -27.113,-29.163c-7.609,-14.468 -10.315,-26.271 -9.055,-39.339c0.935,-10.269 6.534,-25.713 12.464,-34.344c5.878,-8.637 17.262,-18.528 25.335,-21.984c8.073,-3.45 22.588,-6.389 32.201,-6.482Z" style="fill:#fff;stroke:#2c5f2e;stroke-width:4.17px;"/><g><path d="M1221.4,1241.324c0,0 -166.217,156.9 -219.125,291.912c0,0 186.096,279.137 270.021,339.346c0,0 129.533,344.821 240.825,468.883c0,0 -138.658,-229.879 -193.392,-585.646l165.416,-104.604l-233.529,43.788c0,0 -111.9,-116.767 -142.308,-172.717l30.408,-84.2l197.042,-96.416l-175.15,46.825l59.792,-147.171Z" style="fill:#fff;fill-rule:nonzero;"/><path d="M1490.362,1221.862c17.4,27.042 38.104,56.217 62.642,86.358c26.838,32.963 53.525,61.254 78.45,85.246c4.537,1.317 9.45,3.183 14.746,2.838c12.012,-0.788 33.3,-5.983 70.396,-23.621c0,0 -51.087,6.083 -100.954,-47.433c0,0 -88.792,-82.708 -125.279,-103.387Z" style="fill:#fff;fill-rule:nonzero;"/><path d="M1632.296,1063.741l91.596,-6.079l49.871,43.788l-18.246,80.275c0,0 -0.75,-115.55 -123.221,-117.983Z" style="fill:#fff;fill-rule:nonzero;"/><path d="M1540.229,1187.803l145.958,-51.083c0,0 49.867,105.821 65.679,114.333l-48.837,-18.246c0,0 -22.921,10.95 -44.209,-0.604c0,0 -67.504,-51.696 -118.592,-44.4Z" style="fill:#fff;fill-rule:nonzero;"/><path d="M1631.383,774.299c-2.708,0 -8.458,1.917 -10.875,1.167c22.542,6.875 26.458,26.458 26.458,26.458c-30.375,5.875 -64.667,84.333 -64.667,84.333c-22.583,-17.667 -109.833,-32.375 -109.833,-32.375c77.458,-79.417 145.125,-121.542 145.125,-121.542c77.416,-41.208 205.875,98.042 205.875,98.042l-39.208,-66.667c54.875,1.958 71.542,34.292 71.542,34.292l104.917,156.875c-36.458,2.708 -73.167,-14.958 -104,-32.5c-28.375,-16.167 -57.167,-35.083 -81.458,-57.083c-34.958,-31.625 -66.042,-68.167 -111.75,-84.667c-10.208,-3.666 -21.208,-6.417 -32.125,-6.333Zm681.208,647.042l-437.875,-238.375l-0.167,-1.208l-15.417,-117.292c-0.167,-1.25 -0.792,-2.375 -1.75,-3.167l-107.417,-87.5c-1.583,-1.292 -2.208,-3.417 -1.583,-5.333l12.667,-39.042c1.042,-3.167 4.917,-4.375 7.625,-2.375c146.416,107.833 239.333,65.75 260.875,53.083c2.625,-1.5 3.25,-4.958 1.333,-7.333c-58.292,-71.708 -113.25,-161.75 -113.25,-161.75c-49.292,-91.833 -108.25,-97.917 -108.25,-97.917c-34.542,-4.167 -64.792,-16.417 -96.25,-31c-30.625,-14.208 -63.167,-26.792 -97.417,-19.459c-44.792,9.584 -154.125,107.583 -180.375,131.542c-2.667,2.458 -6.875,1.25 -8,-2.208c-7.583,-23.75 -18.25,-46.458 -31.5,-67.583c-7.208,-11.5 -15.125,-22.5 -23.625,-33.083c-6.958,-8.708 -14.167,-17.583 -25.292,-20.833c-14.083,-4.042 -29.333,-2.208 -43.667,-0.458c-12.417,1.542 -24.875,3.833 -36.917,7.208c-12.875,3.625 -25.5,9.25 -38.083,13.792c-21,7.625 -42.042,15.208 -63.042,22.834c-13.875,5 -26,11.125 -40.75,12.333c-13.917,1.167 -27.792,2.5 -41.583,4.542c-47.708,7.083 -98.208,26.083 -126.667,67.625c-8.833,12.875 -15.125,27.458 -19.833,42.333c-13.167,41.75 -15.25,86.833 -13.875,130.333c0.708,21.875 2.125,36.208 5.375,57.333c0.25,1.458 -0.208,3 -1.208,4.083c-249.667,267.375 -370,792.125 -384.833,833.25c-0.542,1.542 -4.458,19.917 -3.5,21.208l-0.417,104.75c2.417,3.292 7.625,2.333 8.708,-1.667l60.75,-225.083c1,-3.667 5.625,-4.875 8.292,-2.125l642.958,556.292c0.243,0.254 4.675,4.645 4.957,4.838c0.829,0.566 1.809,5.027 2.834,4.995l167.792,133.833c4.625,-0.125 -1.75,-18.458 -5.417,-21.25c-106.583,-82.458 -727.083,-748.208 -766.167,-790.208c-1.208,-1.292 -1.583,-3.083 -1.083,-4.792c74.75,-243.083 243.417,-468.25 273.125,-506.792c2.167,-2.75 6.375,-2.417 8.167,0.583c26.208,44.875 63.25,79.833 86.167,99c4.167,3.5 10.042,-1.375 7.417,-6.167c-85.375,-154.083 -52.208,-348.5 -52.208,-348.5c17.375,-121.75 158.083,-102.958 226.625,-86.208c5.5,1.333 8.542,-6.125 3.667,-9l-27.125,-16c-3.292,-1.917 -3.25,-6.708 0.083,-8.542c69.042,-37.208 150.042,-38.375 150.042,-38.375c6.333,0 27.625,56.125 30.792,63.459c8.417,19.5 16,39.333 22.542,59.5c10.667,32.792 18.625,66.5 22.584,100.75c3.875,34.083 3.958,68.958 -2.25,102.75c-3.917,21.208 -5.458,54.042 -33.916,51.792c-58.296,-4.583 -107.5,-46.042 -150.959,-81.417c-48.083,-39.125 -90.708,-83.416 -133.917,-127.708c-9.167,-9.375 -21.25,-20.958 -34.458,-23.917c-21.583,-4.833 -33.292,22.958 -36.5,39.75c-3.75,19.625 -1.667,40.292 1.75,59.792c3.25,18.583 8.25,36.875 14.208,54.75c0.292,0.917 0.792,2.042 1.333,3.25c2.042,4.5 8.708,3.542 9.375,-1.375c2.667,-19.25 5.667,-32.958 8,-41.875c1.208,-4.542 7.417,-5 9.25,-0.708c14.5,33.167 41.542,83.458 46.208,92.042c0.417,0.833 0.625,1.75 0.542,2.708l-3.833,49.125c-0.417,5.458 7,7.417 9.333,2.5c16.333,-34.375 40.083,-70.208 48.75,-82.917c1.75,-2.542 5.333,-2.833 7.5,-0.667c141.667,139.083 249.708,114.75 262.667,111.167c0.875,-0.25 1.625,-0.709 2.25,-1.333c45.333,-47.084 22.708,-216.458 17.417,-251.667c-0.5,-3.25 2.292,-6.042 5.541,-5.625c119.25,15.958 192.292,74.917 192.292,74.917l144.875,106.75c1.042,0.75 1.75,1.917 1.958,3.167l21.417,130.542l0.167,1l337.25,186.791c2.5,1.375 3.333,4.583 1.75,6.959c-47.417,70.583 42.917,154.458 61.75,170.75c1.917,1.667 2.25,4.417 0.833,6.5l-34.667,50.333c-0.708,1.042 -1.792,1.75 -3,2l-208.333,44.708c-0.75,0.167 -1.5,0.125 -2.25,-0.042l-115.667,-28.917l-62,-18.25c-62.042,-18.25 -82.75,-8.542 -82.75,-8.542l-60.958,24.25c-4.583,1.792 -3.958,8.458 0.875,9.417l140.125,27.125c0.167,0.042 0.333,0.083 0.542,0.125c142.958,44.833 216.917,48.75 252.25,45.458c5.542,-0.542 7.458,7.208 2.333,9.417c-39.625,17.083 -81.375,7.833 -84.375,7.125c-0.125,-0.042 -0.25,-0.042 -0.375,-0.083l-264.667,-37.625c-0.208,-0.042 -0.375,-0.083 -0.583,-0.125l-120.75,-31.792c-4.875,-1.25 -8.292,4.708 -4.75,8.25c1,1 1.458,2.25 1.458,3.458c0,2.167 -1.458,4.292 -3.917,4.792c-84.584,17.75 -142.875,81.333 -165.958,110.833c-3.208,4.042 1.208,9.625 5.917,7.5l55.542,-25.25c3.417,-1.583 7.25,1.208 6.875,4.958c-22.5,240.75 20.333,369.792 48.042,425.542c2.667,5.333 10.667,2.292 9.125,-3.458c-30.25,-114.417 -11.708,-218.417 -3.583,-253.667c1.042,-4.5 7.208,-5.208 9.25,-1.042c36.042,73.5 53.667,175.042 60.708,225.75c0.792,5.667 8.958,5.667 9.75,0c16.625,-119.958 -14.958,-309.458 -18.917,-332.417c-0.25,-1.458 0.167,-2.958 1.125,-4.083l58.125,-66.25c0.75,-0.833 1.708,-1.417 2.792,-1.625c139,-27.042 356.708,20.792 377.458,25.5c1.083,0.25 2.166,0.125 3.166,-0.333c90.834,-41.5 132.125,-97.292 139.5,-108.125c0.833,-1.167 2.166,-1.958 3.625,-2.083c31.25,-3.167 36.625,-10.083 37.583,-12.375c0.25,-0.583 0.541,-1.125 1,-1.583c69.75,-72.75 109.417,-191.167 111.042,-196.083c0.042,-0.125 0.083,-0.208 0.125,-0.333c22.917,-52.125 -12.25,-69.125 -12.25,-69.125Z" style="fill:#fff;fill-rule:nonzero;"/></g></g></svg>